<svg version="1.0" xmlns="http://www.w3.org/2000/svg"
     width="2278.000000pt" height="1636.000000pt" viewBox="0 0 2278.000000 1636.000000"
     preserveAspectRatio="xMidYMid meet">
  <g transform="translate(0.000000,1636.000000) scale(0.100000,-0.100000)"
     fill="#000000" stroke="none">
    <path d="M14375 14163 c-70 -2 -262 -22 -300 -30 -11 -2 -45 -6 -75 -9 -258
-26 -638 -132 -1042 -290 -76 -30 -141 -54 -145 -54 -18 0 -151 -73 -183 -101
-19 -17 -41 -34 -50 -39 -33 -18 0 -20 51 -2 87 31 216 73 230 76 8 2 25 8 39
13 14 6 59 21 100 32 41 12 120 36 175 53 180 55 219 67 280 79 33 6 74 11 90
11 17 0 110 15 208 34 226 43 287 51 287 35 0 -9 15 -11 53 -7 224 25 354 27
367 6 5 -8 10 -10 10 -4 0 17 702 13 708 -3 3 -10 38 -13 132 -13 105 0 130 3
141 16 7 9 23 20 36 25 34 13 28 24 -19 42 -122 46 -373 93 -598 113 -36 3
-83 7 -105 9 -60 6 -310 12 -390 8z"/>
    <path d="M15199 13849 c-146 -7 -201 -12 -393 -34 -231 -26 -407 -66 -691
-156 -104 -34 -197 -62 -205 -65 -8 -2 -49 -15 -90 -29 -77 -26 -132 -38 -255
-54 -38 -6 -79 -12 -90 -14 -11 -3 -40 -8 -64 -12 -24 -4 -58 -13 -75 -20 -17
-7 -55 -16 -84 -20 -32 -4 -56 -13 -61 -23 -8 -14 -47 -19 -243 -30 -128 -8
-294 -15 -368 -18 -279 -8 -494 -24 -525 -40 -24 -13 -79 -17 -260 -21 -478
-10 -699 -22 -779 -40 -128 -28 -185 -62 -293 -170 -91 -92 -210 -253 -296
-403 -42 -73 -154 -430 -172 -549 -18 -115 -68 -241 -103 -260 -32 -17 -102
-25 -102 -12 0 7 -5 9 -12 5 -17 -10 -465 -6 -593 6 -55 5 -419 7 -810 4 -749
-4 -926 -8 -1145 -24 -329 -23 -635 -32 -681 -19 -24 7 -51 14 -59 15 -15 3
-81 -7 -460 -71 -363 -61 -1007 -238 -1235 -340 -66 -29 -145 -63 -175 -76
-65 -27 -362 -177 -370 -187 -3 -4 -34 -27 -70 -51 -249 -168 -413 -291 -485
-361 -123 -121 -330 -349 -402 -442 -11 -15 -24 -24 -28 -20 -5 4 -5 2 -2 -4
4 -6 -3 -23 -16 -37 -12 -13 -44 -53 -72 -88 -27 -35 -53 -65 -57 -67 -5 -2
-8 -10 -8 -18 0 -8 -3 -14 -7 -14 -5 0 -13 -10 -19 -23 -6 -12 -29 -52 -51
-88 -43 -69 -174 -323 -219 -424 -27 -62 -138 -331 -154 -375 -21 -57 -99
-349 -106 -395 -4 -27 -12 -59 -19 -70 -11 -17 -36 -134 -50 -230 -5 -34 -13
-70 -15 -70 -1 0 -3 -18 -6 -40 -2 -22 -6 -47 -7 -55 -5 -22 -20 -111 -22
-135 -1 -11 -3 -20 -5 -20 -1 0 -3 -27 -5 -60 -3 -47 2 -31 24 75 15 74 32
146 36 160 5 14 10 32 11 40 7 44 16 79 30 115 9 22 15 41 14 43 -1 2 5 18 13
35 31 63 75 187 68 187 -11 0 37 134 83 233 20 43 36 85 36 93 0 9 49 100 109
202 59 103 141 245 182 315 41 71 90 145 109 165 19 20 28 33 20 28 -8 -4 0 4
18 19 20 16 31 33 28 42 -4 9 -2 11 6 7 8 -5 9 -2 5 9 -3 9 -1 19 5 23 7 4 8
3 4 -4 -4 -7 -3 -12 2 -12 12 0 24 29 17 40 -3 5 4 14 15 20 11 6 18 15 15 21
-4 5 -1 8 7 7 7 -2 13 5 13 14 0 9 4 20 9 25 5 5 6 2 2 -7 -5 -8 3 -1 17 15
15 17 32 42 40 57 49 100 378 416 550 531 47 30 71 49 119 89 18 15 37 28 41
28 4 0 31 18 60 39 50 37 259 162 377 224 30 16 60 33 65 37 6 5 28 15 50 23
82 30 261 98 280 107 11 5 36 13 55 19 50 14 220 65 323 96 48 15 94 24 103
21 8 -3 13 -2 10 2 -3 5 68 22 157 40 160 31 166 31 477 32 280 0 409 -6 490
-24 14 -3 49 -8 79 -11 29 -3 57 -8 61 -10 5 -3 25 -7 46 -10 22 -3 50 -7 64
-10 14 -3 39 -8 55 -10 17 -3 55 -13 85 -22 62 -18 113 -31 149 -39 46 -10
366 -117 375 -125 6 -5 15 -9 22 -9 7 0 34 -10 61 -22 26 -11 53 -22 58 -23 6
-2 33 -13 60 -25 27 -12 67 -29 89 -36 22 -8 47 -21 56 -29 8 -8 42 -26 75
-41 159 -70 349 -185 532 -321 28 -21 61 -45 73 -53 33 -22 95 -77 175 -154
39 -37 117 -111 173 -164 63 -58 145 -151 207 -232 57 -74 136 -175 174 -225
108 -137 212 -298 273 -420 73 -144 187 -405 233 -530 20 -55 43 -113 50 -130
92 -207 179 -447 233 -640 31 -110 54 -225 49 -245 -5 -20 -1 -42 36 -210 14
-63 31 -146 37 -185 16 -87 16 -90 28 -145 5 -25 10 -63 11 -85 0 -22 5 -62
11 -90 5 -27 17 -104 25 -170 8 -66 20 -145 25 -176 6 -30 15 -120 20 -200 5
-79 15 -187 22 -239 22 -163 8 -644 -27 -925 -8 -66 -17 -147 -20 -180 -3 -33
-12 -98 -20 -145 -7 -47 -17 -110 -20 -140 -4 -30 -11 -59 -15 -65 -4 -5 -33
-105 -64 -222 -31 -117 -66 -234 -77 -260 -11 -26 -44 -122 -74 -213 -113
-352 -143 -426 -301 -741 -174 -345 -236 -448 -363 -593 -47 -55 -117 -136
-155 -180 -38 -45 -96 -110 -130 -145 -33 -35 -54 -60 -46 -56 20 10 -231
-239 -300 -297 -30 -26 -84 -72 -120 -103 -36 -31 -78 -63 -95 -72 -16 -9
-100 -68 -185 -131 -85 -64 -211 -154 -280 -200 -138 -92 -388 -220 -444 -227
-20 -3 -50 -11 -68 -19 l-33 -14 63 -7 c58 -7 75 -18 31 -21 -10 -1 -20 -2
-21 -4 -2 -1 -23 -3 -47 -5 -24 -2 -47 -7 -52 -12 -9 -9 57 -9 146 2 33 3 89
8 125 10 79 5 229 21 370 41 169 24 390 52 457 59 34 3 70 8 81 10 27 5 192
23 287 31 44 3 96 8 115 10 19 3 62 7 95 10 72 6 166 30 218 56 21 10 71 52
112 93 42 41 85 80 97 86 12 6 54 13 94 15 110 6 309 22 399 33 44 5 127 12
185 15 118 6 433 32 555 45 352 40 514 75 860 185 207 65 268 91 602 258 285
141 334 158 453 147 36 -3 326 -6 645 -7 319 -1 582 -2 585 -3 3 -1 471 -1
1040 0 950 1 1316 5 1475 16 93 6 239 14 370 20 66 3 147 8 180 11 569 44 710
78 955 227 148 91 191 129 374 332 223 248 247 293 321 608 14 60 30 150 36
200 13 99 20 519 23 1272 1 331 5 486 14 525 7 32 15 183 20 365 9 408 9 1587
-1 1835 -20 507 -29 1773 -13 1995 10 151 13 608 4 655 -3 19 -14 67 -23 105
-9 39 -19 79 -21 90 -9 46 -14 63 -33 113 -12 28 -19 52 -16 52 2 0 -12 31
-31 70 -41 80 -138 189 -227 255 -34 25 -67 49 -73 54 -12 9 -77 53 -133 89
-84 53 -226 114 -366 157 -82 26 -157 52 -165 59 -8 7 -89 36 -180 66 -91 29
-185 61 -210 71 -25 9 -86 33 -136 53 -51 20 -153 67 -228 105 -75 38 -180 86
-234 106 -194 74 -385 165 -446 214 -90 71 -107 80 -169 91 -50 10 -65 8 -123
-12 -76 -26 -85 -36 -148 -169 -50 -107 -60 -157 -46 -226 5 -26 21 -127 35
-223 15 -96 35 -218 46 -270 12 -52 21 -104 21 -115 0 -11 7 -54 15 -95 8 -41
18 -118 23 -170 18 -187 50 -485 54 -500 3 -8 7 -46 11 -85 3 -38 8 -77 10
-85 4 -14 8 -42 40 -295 7 -60 16 -150 20 -200 6 -87 10 -130 20 -205 3 -19 7
-55 10 -80 3 -25 10 -76 15 -115 11 -87 9 -41 15 -435 3 -184 1 -424 -5 -533
-9 -178 -8 -206 7 -264 21 -76 45 -107 99 -123 24 -7 154 -14 334 -17 172 -3
298 -10 301 -15 4 -5 17 -9 30 -7 54 5 103 -14 165 -67 35 -30 67 -54 72 -54
5 0 24 -21 42 -47 18 -27 45 -60 58 -75 14 -16 22 -28 18 -28 -7 0 28 -54 51
-78 7 -7 13 -17 13 -21 0 -5 8 -26 17 -47 9 -22 18 -43 19 -49 42 -148 45
-166 46 -280 1 -127 -18 -253 -51 -346 -34 -95 -67 -166 -94 -208 -30 -46
-110 -108 -115 -91 -2 6 -12 0 -22 -13 -31 -39 -100 -56 -370 -92 -110 -14
-342 -16 -355 -3 -13 13 16 50 35 45 11 -3 27 1 37 9 10 7 28 14 41 14 12 0
25 7 28 15 4 9 30 27 59 40 28 14 59 33 67 42 24 29 85 183 105 263 23 100 23
289 -1 384 -20 79 -79 201 -104 216 -9 5 -14 10 -10 10 12 0 -180 190 -192
190 -13 0 -105 70 -208 160 -46 39 -87 69 -90 65 -10 -10 -4 -872 8 -1005 5
-63 12 -185 15 -270 3 -85 8 -180 10 -210 3 -30 7 -104 10 -165 4 -60 10 -130
16 -155 5 -25 8 -65 7 -90 -3 -88 6 -206 19 -244 16 -47 18 -312 2 -353 -14
-37 -20 -39 -91 -42 -95 -3 -186 -40 -226 -92 -52 -66 -146 -306 -167 -425 -8
-47 -15 -131 -15 -185 0 -110 43 -477 65 -555 17 -58 60 -99 123 -116 20 -6
42 -18 49 -27 18 -23 16 -105 -3 -143 -31 -62 -324 -317 -414 -360 -217 -104
-256 -115 -430 -123 -74 -3 -151 -8 -170 -10 -19 -2 -91 -7 -160 -11 -69 -4
-141 -8 -160 -9 -19 -1 -93 -6 -165 -10 -71 -4 -139 -9 -150 -11 -11 -2 -54
-6 -95 -9 -70 -5 -104 -7 -240 -20 -30 -3 -67 -8 -82 -11 -16 -3 -28 -2 -28 3
0 5 39 38 87 73 93 69 170 140 397 365 219 218 329 336 382 411 49 69 238 325
312 421 76 99 432 852 432 914 0 6 6 25 14 42 67 149 150 360 175 442 51 169
112 461 126 605 4 36 8 76 10 90 20 145 27 274 22 414 -6 153 -21 346 -32 411
-3 17 -7 64 -10 105 -16 228 -50 394 -129 625 -57 167 -84 243 -101 280 -8 17
-31 73 -51 125 -37 95 -91 213 -119 260 -15 25 -14 139 2 215 3 17 6 140 6
275 0 259 -16 448 -53 604 -10 44 -21 101 -24 126 -24 184 -40 278 -61 365
-14 55 -34 138 -44 185 -11 47 -36 137 -55 202 -33 107 -53 166 -149 428 -39
108 -117 268 -156 320 -47 63 -55 71 -168 175 -163 150 -262 209 -423 255 -62
17 -97 24 -200 34 -244 26 -253 28 -333 69 -98 50 -194 142 -237 226 -16 34
-30 63 -30 66 0 3 -10 22 -21 42 -12 21 -30 65 -39 98 -10 33 -30 99 -44 148
-29 99 -33 203 -8 251 13 26 52 73 118 141 12 12 43 39 70 61 27 21 58 47 69
57 113 105 536 293 794 354 224 53 325 76 341 78 8 1 22 5 30 8 8 4 27 8 42
11 15 3 32 7 37 10 5 3 28 8 52 11 23 3 62 10 87 16 25 5 66 12 91 15 42 5 66
8 141 19 14 2 43 6 65 9 22 3 117 17 210 31 94 14 178 26 188 27 28 3 20 18
-10 18 -16 1 -59 3 -98 6 -187 13 -383 18 -506 13z m-4934 -2354 c44 -8 109
-25 145 -39 106 -40 227 -92 241 -105 8 -7 36 -28 63 -47 27 -19 44 -34 38
-34 -25 0 -11 -18 18 -23 17 -4 30 -11 30 -17 0 -7 -206 -10 -628 -10 l-629 0
-70 34 c-48 24 -82 49 -108 80 -21 25 -42 46 -47 46 -6 0 -33 18 -60 40 -52
41 -57 43 -95 40 -13 -1 -23 3 -23 8 0 20 52 24 335 29 159 2 292 6 294 9 12
11 422 3 496 -11z m1000 -581 c11 -15 40 -51 65 -79 52 -57 94 -119 105 -155
4 -14 23 -55 41 -92 19 -37 30 -69 26 -71 -32 -20 -162 -36 -322 -41 -102 -3
-288 -12 -415 -21 -401 -26 -505 -20 -505 31 0 8 -4 14 -9 14 -9 0 -71 76
-154 190 -26 36 -59 80 -73 97 -31 39 -23 57 29 67 18 3 42 8 55 10 12 3 57 7
100 10 269 20 393 30 597 51 132 14 275 23 335 21 102 -3 105 -4 125 -32z
m1841 -708 c8 -8 11 -21 8 -29 -3 -8 2 -17 10 -20 11 -4 13 -1 9 10 -5 13 -1
15 20 11 15 -3 27 -1 27 3 0 5 5 9 10 9 6 0 10 -7 10 -17 0 -9 3 -13 7 -10 8
8 58 -76 153 -258 641 -1219 887 -2876 660 -4447 -25 -174 -34 -212 -52 -233
-12 -14 -28 -23 -34 -21 -7 3 -15 -7 -19 -21 -4 -16 -11 -23 -20 -20 -7 3 -19
-1 -26 -9 -6 -8 -13 -13 -15 -11 -2 2 7 69 20 148 87 508 122 1055 105 1600
-19 601 -89 1100 -234 1664 -156 607 -366 1114 -677 1633 l-20 32 22 0 c12 0
28 -6 36 -14z m-1267 -169 c20 -22 49 -63 65 -91 42 -72 93 -199 90 -221 -3
-19 -21 -35 -42 -35 -7 0 -11 -4 -7 -9 10 -17 -13 -22 -192 -47 -97 -13 -217
-31 -267 -39 -50 -9 -118 -20 -151 -25 -33 -5 -154 -18 -269 -27 l-209 -17
-23 29 c-13 17 -24 36 -24 42 0 17 -89 186 -149 283 l-49 79 31 7 c47 10 55
17 27 25 -21 5 -18 7 20 12 110 15 375 38 600 52 135 9 248 17 253 18 4 1 64
2 133 3 l127 1 36 -40z m352 -884 c16 -10 29 -21 29 -25 0 -5 9 -27 19 -51 19
-40 34 -80 88 -232 15 -43 27 -102 30 -152 l5 -81 -38 -11 c-52 -13 -173 -29
-319 -41 -220 -18 -250 -21 -321 -30 -39 -5 -82 -14 -96 -19 -78 -30 -271 -20
-251 12 12 18 9 41 -5 52 -7 6 -18 31 -23 55 -5 25 -19 65 -31 90 -11 25 -38
90 -58 145 -21 55 -41 108 -45 118 -6 14 -2 17 21 17 l29 1 -30 13 c-29 12
-29 13 -9 24 22 12 216 43 424 68 69 8 195 25 280 38 196 29 263 31 301 9z
m247 -1139 c52 -5 102 -34 102 -59 0 -6 11 -26 25 -45 14 -19 25 -42 25 -52 0
-10 4 -18 8 -18 4 0 8 -8 8 -17 1 -10 4 -38 8 -63 4 -25 8 -53 9 -62 1 -10 4
-18 7 -18 9 0 11 -14 14 -107 1 -45 0 -87 -3 -92 -6 -10 -153 -16 -566 -26
-215 -5 -482 -16 -506 -20 -19 -4 -41 38 -36 69 2 10 -1 42 -6 70 -4 28 -10
67 -12 86 -2 19 -10 55 -18 80 -13 37 -22 117 -18 153 1 4 0 9 -1 11 -2 2 6
13 16 25 11 12 15 21 11 21 -5 0 -5 4 1 9 16 17 193 40 384 51 323 19 401 19
548 4z m287 -1093 c57 -6 61 -8 78 -42 29 -60 45 -172 46 -324 2 -138 1 -146
-24 -184 l-25 -41 -138 -1 c-75 0 -148 -2 -162 -4 -14 -1 -79 -6 -145 -10 -66
-4 -123 -9 -127 -11 -4 -3 -31 -6 -60 -9 -135 -11 -196 -17 -233 -21 -118 -11
-170 -12 -182 -2 -7 6 -13 27 -13 47 0 20 -5 42 -10 47 -6 6 -13 46 -16 90 -2
43 -8 135 -13 204 -6 69 -7 137 -4 151 5 29 30 44 90 55 21 4 41 12 45 18 9
13 103 22 273 26 72 1 182 6 245 10 148 9 299 10 375 1z m9 -1386 c-3 -87 -35
-183 -125 -373 l-51 -109 -75 -2 c-42 -1 -79 -3 -82 -5 -8 -5 -129 -15 -261
-21 -271 -13 -322 -15 -415 -21 -144 -10 -217 -12 -242 -6 -21 4 -22 6 -8 32
19 36 70 267 85 380 14 107 28 140 58 140 12 0 30 -9 39 -20 13 -15 29 -20 63
-19 44 1 45 1 13 10 -18 5 -34 13 -37 17 -2 4 105 7 237 7 133 0 289 2 347 6
254 16 325 21 328 24 2 1 31 2 65 1 l62 -1 -1 -40z m-473 -1257 c-21 -55 -73
-158 -80 -158 -4 0 -18 -9 -31 -20 -13 -11 -29 -20 -35 -20 -7 0 -15 -8 -17
-18 -5 -16 -19 -20 -107 -25 -69 -3 -108 -10 -119 -20 -24 -20 -179 -31 -457
-32 -204 0 -234 2 -263 18 -26 14 -31 21 -23 31 6 8 9 20 5 29 -3 8 7 38 23
67 15 29 40 75 55 104 l26 51 154 5 c84 3 316 7 516 8 l362 4 -9 -24z m-583
-1055 c-10 -22 -42 -78 -65 -112 -1 -2 -64 -16 -140 -32 -76 -15 -169 -34
-208 -43 -38 -9 -86 -16 -105 -16 -19 0 -60 -7 -90 -16 -132 -36 -670 -32
-670 6 0 5 17 28 38 52 20 24 44 55 53 68 15 23 24 25 225 42 115 9 247 22
294 28 47 5 132 15 190 21 58 5 134 13 170 17 36 4 122 8 193 10 l127 4 -12
-29z m-894 -831 c-102 -72 -278 -113 -669 -153 -60 -6 -131 -13 -157 -16 -61
-7 -238 6 -238 18 0 5 19 28 43 52 46 48 40 47 237 67 52 5 118 12 145 15 154
17 255 23 380 25 77 1 160 5 185 10 25 4 60 8 79 9 l34 1 -39 -28z"/>
    <path d="M16700 12958 c-12 -13 -34 -46 -51 -74 -24 -43 -29 -62 -29 -121 0
-39 7 -90 15 -114 20 -55 8 -87 -46 -125 l-39 -27 -163 6 c-89 4 -178 9 -197
13 -68 11 -256 60 -345 88 -27 9 -72 23 -100 31 -99 29 -171 54 -250 85 -44
17 -102 38 -130 45 -27 8 -122 39 -210 69 -258 89 -612 140 -775 112 -51 -9
-167 -36 -209 -49 -78 -24 -58 -33 63 -32 63 1 143 -2 178 -7 35 -4 105 -12
156 -18 109 -12 122 -14 262 -41 204 -39 421 -108 653 -210 87 -38 169 -72
182 -75 14 -3 25 -11 25 -17 0 -6 3 -8 6 -4 5 5 63 -12 109 -32 80 -36 129
-51 145 -46 10 3 35 -1 54 -9 20 -8 36 -13 36 -10 0 2 13 -2 28 -10 16 -8 50
-17 76 -21 26 -3 55 -9 64 -13 10 -5 35 -10 56 -11 22 -2 49 -6 60 -11 11 -4
34 -4 49 1 20 6 59 0 130 -18 74 -19 133 -26 215 -28 62 -1 115 -5 119 -8 3
-3 12 1 20 9 8 8 18 12 23 9 20 -13 50 -95 50 -138 0 -101 51 -160 200 -233
58 -28 141 -62 185 -77 163 -52 282 -87 297 -87 8 0 18 -3 21 -7 10 -9 245
-70 347 -89 14 -3 45 -10 70 -15 64 -15 247 -47 298 -53 78 -9 355 -7 456 3
54 6 102 8 106 6 5 -3 11 -1 15 5 3 5 23 10 44 10 20 0 62 4 92 10 30 5 71 12
92 14 22 3 45 13 53 23 45 58 90 157 126 283 l41 140 -22 72 c-12 40 -27 91
-34 113 l-12 40 -55 -3 c-30 -2 -68 -5 -85 -8 -16 -2 -73 -7 -125 -11 -90 -5
-96 -7 -123 -37 l-28 -31 5 33 6 32 -86 0 -86 0 -11 -30 c-6 -16 -18 -32 -25
-35 -12 -4 -13 2 -9 30 5 32 3 35 -21 41 -15 3 -45 9 -67 14 -22 5 -66 11 -97
14 l-56 6 -12 -34 c-6 -19 -18 -40 -27 -48 -14 -11 -15 -10 -11 17 3 17 8 37
12 46 6 13 0 18 -26 22 -174 28 -192 30 -195 20 -2 -5 -11 -19 -19 -29 -15
-18 -15 -17 -10 13 5 28 2 32 -22 37 -32 7 -154 26 -164 26 -4 0 -15 -16 -24
-35 -26 -56 -41 -31 -17 31 2 7 -21 16 -59 23 -35 6 -75 14 -90 17 -23 5 -29
0 -44 -28 -10 -19 -19 -27 -22 -20 -2 7 1 19 8 27 18 21 5 32 -46 39 -26 3
-52 10 -58 16 -7 5 -30 12 -51 15 -38 6 -41 4 -55 -26 -8 -18 -21 -35 -27 -37
-18 -5 -16 29 2 55 17 25 17 25 -48 43 -26 7 -50 17 -53 21 -3 5 -15 9 -28 9
-12 0 -27 5 -33 11 -9 9 -16 2 -27 -25 -8 -20 -20 -36 -25 -36 -14 0 -14 6 4
40 14 26 13 29 -8 42 -12 8 -35 18 -50 22 -15 4 -30 13 -34 22 -7 20 23 97 46
118 18 16 23 16 72 2 61 -19 59 -18 59 -8 0 8 -134 52 -157 52 -6 0 -13 -7
-17 -15 -3 -8 -11 -15 -18 -15 -7 0 -26 -12 -42 -27 -24 -22 -32 -24 -47 -15
-10 7 -26 12 -34 12 -9 0 -46 30 -83 67 -82 81 -208 183 -227 183 -8 0 -24
-10 -35 -22z"/>
    <path d="M19522 11648 c-20 -20 -14 -31 36 -73 52 -44 182 -187 203 -225 8
-13 20 -31 27 -39 24 -25 61 -89 76 -128 8 -21 33 -85 55 -143 84 -215 146
-532 150 -772 1 -53 4 -107 7 -120 25 -127 16 -203 -30 -250 -29 -29 -95 -122
-148 -207 -23 -36 -33 -109 -19 -143 12 -33 37 -36 102 -12 46 16 118 32 181
41 21 3 67 -4 110 -16 92 -26 138 -70 163 -157 10 -32 23 -80 31 -105 7 -25
17 -72 20 -103 5 -42 10 -56 20 -52 12 4 14 -28 14 -182 0 -103 3 -225 5 -272
2 -47 7 -197 10 -335 3 -137 10 -293 15 -345 6 -61 6 -174 -1 -315 -9 -197 -7
-838 6 -2005 2 -168 0 -388 -6 -490 -5 -102 -12 -232 -15 -290 -2 -58 -9 -157
-14 -220 -10 -118 -10 -123 30 -265 12 -44 26 -96 31 -115 13 -53 11 -141 -5
-218 -21 -96 -100 -297 -141 -358 -19 -28 -35 -55 -35 -61 0 -6 -7 -16 -15
-23 -13 -11 -15 -8 -15 19 0 17 -5 31 -10 31 -6 0 -10 18 -9 43 1 23 -1 76 -4
117 -4 41 -12 149 -18 240 -6 91 -14 171 -18 178 -10 17 -30 -77 -37 -168 -18
-236 -61 -507 -100 -632 -25 -79 -81 -195 -128 -265 -42 -61 -130 -146 -196
-189 -37 -23 -72 -50 -79 -58 -8 -9 -20 -16 -28 -16 -8 0 -33 -9 -55 -20 -29
-14 -44 -17 -49 -9 -5 8 -12 8 -26 0 -21 -11 -139 -37 -206 -45 -21 -3 -41 -7
-45 -10 -4 -2 -28 -7 -52 -11 -25 -3 -52 -8 -61 -11 -10 -3 -30 -6 -45 -9 -16
-2 -74 -15 -129 -30 -55 -15 -112 -28 -127 -30 -15 -2 -31 -6 -36 -9 -5 -3
-23 -8 -39 -11 -83 -14 -77 -24 17 -26 52 -1 97 -1 100 -1 256 6 657 49 733
78 20 7 41 13 45 12 8 -1 18 2 145 54 53 22 114 53 136 68 71 52 149 136 205
222 66 101 90 153 106 234 27 136 33 154 51 176 11 13 31 39 44 58 214 314
220 325 270 504 46 163 48 249 9 411 -15 61 -27 121 -27 135 -1 46 14 364 23
500 5 74 10 218 10 318 0 101 2 187 4 190 8 15 17 327 21 734 4 455 8 526 29
628 37 176 46 223 61 325 8 61 20 142 26 182 7 44 10 136 6 240 -6 177 -6 179
-95 521 -24 90 -31 143 -36 270 -11 237 -25 340 -115 822 -10 58 -21 121 -24
140 -9 61 -56 207 -92 286 -19 42 -35 82 -35 89 0 12 -147 85 -172 85 -19 0
-36 88 -43 223 -5 90 -22 253 -39 367 -14 90 -62 295 -82 350 -84 222 -312
564 -423 632 -25 16 -174 75 -196 78 -1 0 -6 -5 -13 -12z"/>
    <path d="M15489 11350 c-47 -25 -66 -55 -84 -135 -24 -103 -21 -187 10 -275 8
-23 15 -50 15 -59 0 -9 17 -41 38 -71 52 -77 105 -119 150 -120 62 -1 163 81
181 147 41 144 2 355 -79 428 -24 22 -25 17 -5 -21 21 -41 21 -224 0 -264 -9
-17 -19 -30 -23 -30 -8 0 -23 35 -46 107 -9 29 -32 79 -51 112 -19 33 -35 69
-35 81 0 12 16 38 35 57 19 19 35 37 35 39 0 1 -17 6 -37 9 -21 4 -45 8 -53
10 -8 2 -31 -5 -51 -15z"/>
    <path d="M5920 11161 c-16 -9 -102 -23 -165 -26 -22 -1 -102 -12 -178 -25 -76
-12 -146 -19 -154 -15 -40 15 -353 -62 -468 -115 -22 -10 -65 -29 -95 -43
-132 -58 -239 -114 -297 -154 -34 -24 -72 -46 -83 -48 -21 -4 -77 -42 -108
-72 -8 -7 -22 -18 -33 -24 -11 -5 -17 -14 -14 -20 4 -5 -1 -9 -9 -9 -9 0 -21
-9 -28 -20 -7 -11 -16 -20 -20 -20 -5 0 -17 -8 -27 -17 -10 -10 -35 -31 -55
-48 -57 -47 -308 -297 -342 -341 -71 -88 -86 -104 -96 -97 -7 4 -8 1 -4 -6 10
-15 -23 -53 -37 -44 -5 3 -7 2 -4 -4 9 -14 -22 -55 -35 -47 -7 4 -8 2 -4 -5
10 -15 -13 -43 -27 -34 -6 3 -7 1 -3 -6 4 -6 -9 -34 -30 -64 -50 -69 -115
-167 -136 -206 -10 -18 -22 -30 -27 -27 -5 3 -8 -2 -7 -12 0 -9 -4 -16 -11
-15 -7 2 -10 -4 -7 -12 3 -7 -10 -40 -28 -72 -19 -32 -37 -66 -41 -76 -4 -11
-12 -15 -18 -11 -7 4 -9 3 -6 -3 11 -17 -14 -75 -28 -69 -8 2 -16 -2 -19 -10
-3 -9 -1 -12 4 -9 6 3 10 -1 10 -9 0 -8 -4 -17 -8 -20 -5 -3 -28 -50 -52 -105
-28 -66 -49 -101 -59 -102 -10 0 -12 -2 -3 -6 6 -2 12 -9 12 -14 0 -6 -4 -7
-10 -4 -5 3 -7 0 -4 -9 3 -8 -1 -25 -10 -38 -9 -12 -16 -30 -16 -40 0 -10 -11
-25 -24 -34 -26 -16 -51 -77 -62 -149 -3 -22 -9 -44 -12 -50 -4 -5 -8 -19 -9
-30 -2 -11 -6 -27 -10 -35 -3 -8 -8 -24 -10 -35 -2 -10 -9 -23 -16 -27 -9 -6
-9 -8 1 -8 6 0 12 -11 12 -25 0 -14 -5 -25 -11 -25 -5 0 -8 -4 -5 -8 3 -5 -9
-53 -25 -108 -33 -104 -84 -298 -93 -349 -3 -16 -8 -41 -11 -55 -12 -64 -15
-78 -20 -115 -6 -50 -24 -163 -36 -235 -5 -30 -12 -66 -14 -80 -2 -14 -7 -65
-10 -115 -4 -49 -10 -101 -15 -115 -11 -32 -22 -371 -20 -600 1 -172 3 -205
14 -305 14 -122 18 -158 36 -295 11 -80 22 -181 25 -225 4 -44 10 -98 15 -120
4 -22 8 -47 9 -55 0 -8 3 -26 5 -40 3 -14 10 -56 16 -93 13 -86 30 -159 41
-173 8 -10 24 -76 35 -149 3 -16 12 -55 21 -85 20 -66 18 -62 25 -80 15 -38
28 -112 22 -123 -4 -7 -3 -8 1 -4 5 4 19 -27 31 -70 12 -43 38 -129 58 -191
20 -63 34 -118 30 -123 -3 -5 -1 -9 5 -9 5 0 19 -30 31 -68 12 -37 27 -71 33
-77 7 -5 13 -19 15 -30 3 -23 21 -63 37 -85 7 -8 22 -40 34 -70 71 -173 154
-333 275 -535 57 -93 128 -215 159 -270 30 -55 77 -130 104 -167 26 -37 66
-93 88 -124 22 -31 74 -101 115 -156 41 -55 80 -108 85 -116 6 -9 15 -21 21
-27 6 -5 35 -39 64 -75 107 -133 127 -155 219 -244 52 -50 121 -117 153 -149
33 -31 68 -62 79 -68 11 -5 17 -14 14 -20 -4 -5 -3 -8 2 -7 13 4 53 -26 53
-40 0 -7 4 -11 9 -7 5 3 16 -2 24 -10 9 -8 20 -15 26 -15 5 0 18 -10 28 -23
10 -13 26 -26 36 -30 9 -3 17 -11 17 -16 0 -9 39 -53 50 -58 63 -25 65 -25 93
-9 37 21 60 20 105 -3 35 -17 66 -20 80 -7 3 3 -2 6 -12 6 -9 0 -14 4 -11 10
3 5 1 18 -4 27 -6 11 -11 13 -11 5 0 -7 -4 -10 -10 -7 -5 3 -10 1 -10 -5 0 -7
-6 -8 -19 -1 -10 6 -21 8 -24 5 -3 -3 -8 3 -11 13 -3 10 -18 26 -33 36 -16 10
-20 16 -10 13 10 -3 17 0 17 8 0 7 7 13 15 13 9 0 11 -4 6 -11 -5 -7 2 -21 20
-39 18 -17 26 -22 22 -11 -4 11 -3 15 4 11 6 -4 13 -1 16 5 3 10 7 10 19 1 8
-7 18 -10 21 -6 4 3 7 1 7 -6 0 -8 5 -9 19 -2 10 6 21 7 25 4 3 -3 6 -1 6 5 0
6 -15 14 -32 18 -18 3 -42 13 -54 20 -11 8 -24 11 -29 7 -4 -5 -5 8 -2 27 5
34 -13 77 -26 63 -4 -3 -9 2 -13 11 -3 9 -12 16 -19 16 -7 0 -45 25 -84 55
-39 30 -74 55 -77 55 -2 0 -10 5 -17 10 -96 80 -150 111 -125 71 6 -10 18 -17
25 -14 7 3 13 -1 13 -9 0 -7 13 -24 29 -38 17 -13 28 -27 25 -32 -3 -4 2 -5
10 -2 25 10 19 -22 -9 -50 -24 -24 -44 -19 -29 7 5 8 2 7 -9 -2 -15 -12 -21
-9 -52 23 -19 21 -39 34 -45 31 -6 -4 -9 -3 -8 2 2 4 -1 9 -5 10 -15 4 -142
135 -139 144 1 5 -4 9 -12 9 -7 0 -22 12 -32 27 -9 16 -23 33 -29 38 -6 6 -36
39 -66 74 -30 35 -67 77 -82 94 -30 32 -73 102 -79 127 -2 8 3 15 10 16 6 1
15 2 20 3 4 1 -15 22 -41 47 -49 46 -78 56 -37 12 12 -13 26 -32 31 -43 30
-62 -65 71 -139 194 -92 154 -118 205 -82 162 11 -13 20 -20 20 -16 0 9 58
-43 221 -200 64 -61 151 -142 195 -180 43 -38 79 -71 79 -74 -1 -3 23 -25 52
-49 29 -24 53 -47 53 -52 0 -5 8 -11 18 -14 9 -3 32 -20 50 -37 18 -17 38 -32
45 -33 26 -3 59 -34 51 -48 -4 -7 -3 -10 1 -6 8 8 86 -33 117 -61 9 -9 64 -45
123 -80 58 -34 111 -68 118 -75 7 -6 39 -24 71 -41 32 -16 63 -37 70 -45 6 -8
20 -17 31 -18 11 -2 22 -8 25 -12 7 -12 62 -32 68 -25 3 3 0 5 -6 5 -7 0 -12
7 -12 16 0 8 -4 13 -9 10 -4 -3 -21 10 -37 29 -16 19 -33 35 -38 35 -22 0
-218 186 -316 300 -30 35 -79 90 -108 121 -30 32 -51 63 -47 68 3 6 1 11 -6
11 -7 0 -9 3 -5 7 4 5 13 1 19 -7 7 -8 23 -16 37 -18 14 -2 45 -12 69 -23 24
-11 52 -21 62 -22 11 -1 19 -4 19 -8 0 -8 28 -19 43 -18 5 0 15 -8 23 -18 14
-17 15 -17 5 2 -5 12 -28 36 -52 55 -23 19 -50 43 -60 52 -11 10 -21 18 -24
18 -12 0 -43 39 -37 47 4 4 3 5 -2 0 -11 -8 -183 158 -192 185 -3 10 -10 16
-15 13 -5 -4 -9 -3 -9 2 0 4 -14 24 -30 43 -29 33 -34 45 -31 63 1 5 -3 6 -8
3 -5 -3 -26 18 -47 46 -39 55 -42 59 -95 118 -17 19 -37 48 -46 64 -8 17 -25
38 -37 47 -11 10 -18 20 -15 24 4 3 35 -26 70 -66 95 -107 171 -180 196 -190
44 -16 38 49 -12 139 l-26 46 63 -67 c35 -37 68 -67 75 -67 6 0 13 -3 15 -8 9
-21 278 -259 369 -326 57 -42 112 -84 122 -92 10 -8 36 -24 58 -36 21 -11 42
-24 44 -29 7 -11 472 -248 500 -254 11 -2 71 -27 130 -54 64 -29 197 -72 193
-62 -2 5 -54 50 -116 99 -62 49 -162 136 -223 193 -62 57 -123 113 -136 124
-25 20 -94 101 -123 145 -8 12 -21 29 -28 36 -7 7 -12 19 -10 26 1 7 -4 24
-11 36 -7 13 -11 26 -8 28 3 3 41 -26 85 -63 45 -37 136 -115 204 -172 118
-100 212 -168 315 -230 26 -15 102 -62 168 -102 66 -41 173 -101 237 -133 64
-33 114 -64 111 -69 -3 -6 -1 -7 5 -3 12 7 92 -15 92 -26 0 -5 7 -8 15 -8 8 0
29 -7 47 -15 18 -8 62 -25 98 -38 36 -14 74 -28 85 -32 11 -5 25 -9 30 -10 6
-2 37 -12 70 -23 33 -10 75 -23 93 -27 18 -3 30 -10 28 -14 -3 -4 11 -8 31 -8
19 -1 40 -6 46 -12 15 -15 57 -14 57 2 0 7 -6 19 -12 26 -11 10 -9 11 7 5 14
-5 12 -1 -8 16 -15 12 -31 20 -34 16 -4 -3 0 -6 7 -6 7 0 11 -2 8 -5 -9 -9
-38 7 -38 21 0 8 -8 14 -17 14 -15 0 -16 -2 -3 -10 8 -5 11 -10 7 -10 -10 0
-70 30 -77 39 -3 3 -9 6 -15 6 -19 1 -115 47 -115 56 0 5 -7 9 -16 9 -8 0 -35
11 -60 25 -24 13 -44 22 -44 19 0 -3 -48 20 -107 51 -104 55 -198 125 -198
148 0 7 -4 12 -10 12 -26 1 -65 16 -65 25 0 6 -5 10 -11 10 -6 0 -21 8 -34 18
-12 9 -31 23 -41 29 -152 102 -195 131 -243 170 -31 25 -67 56 -81 68 -14 13
-52 47 -86 77 -82 72 -202 179 -228 203 -12 11 -32 33 -45 50 -12 16 -26 30
-30 30 -4 0 -41 35 -84 77 -42 43 -75 78 -72 78 3 0 -11 16 -31 37 -19 20 -47
52 -62 72 -14 20 -31 41 -37 46 -7 6 -24 36 -40 68 -15 32 -33 61 -41 64 -8 3
-14 11 -14 19 0 8 -5 14 -11 14 -5 0 -8 4 -4 9 3 6 0 13 -7 18 -7 4 -22 24
-32 43 -26 48 -166 233 -183 243 -8 5 -19 18 -24 30 -5 12 -28 54 -50 92 -45
80 -227 447 -231 467 -2 7 -5 15 -8 18 -5 4 -31 57 -35 70 -1 3 -7 17 -13 32
-76 182 -124 309 -146 383 -15 50 -34 100 -43 113 -8 13 -12 31 -8 40 3 9 3
13 -1 9 -9 -9 -56 133 -49 150 2 7 -2 19 -11 27 -8 8 -14 19 -13 23 1 4 -1 15
-4 23 -3 8 -13 41 -21 73 -12 50 -13 58 0 53 10 -4 14 2 13 22 -1 17 -3 20 -6
10 -8 -30 -21 -20 -25 18 -3 29 -2 33 7 20 17 -23 26 -20 16 7 -5 12 -14 22
-21 22 -16 0 -20 19 -23 112 -1 39 -5 69 -9 67 -11 -7 -10 8 2 26 5 8 5 17 0
20 -5 3 -10 42 -12 88 -1 45 -5 82 -8 82 -3 0 -5 30 -5 66 0 36 -3 68 -6 70
-13 8 -15 402 -3 454 11 46 21 185 14 193 -4 4 -1 40 7 80 12 66 25 169 39
322 3 33 10 85 15 115 6 30 14 86 19 123 5 38 14 83 19 100 6 18 17 64 25 102
8 39 20 88 26 110 6 22 13 47 14 55 6 39 96 292 107 304 5 6 9 16 9 23 0 15
188 405 199 413 4 3 18 23 31 45 13 22 29 43 34 47 7 5 7 8 1 8 -5 0 -3 6 5
13 8 7 21 25 28 40 7 16 25 45 40 65 16 20 68 91 117 157 49 66 94 125 100
132 5 7 21 27 35 44 66 84 281 320 363 398 136 129 173 161 184 161 7 0 16 6
20 13 4 7 24 24 43 37 19 13 37 27 40 30 3 3 52 37 109 74 144 94 327 198 408
231 37 16 97 41 133 56 175 74 373 121 585 139 61 5 152 14 203 20 157 17 367
1 484 -37 26 -8 53 -13 60 -11 29 10 -141 163 -372 334 -90 67 -263 154 -277
140 -3 -3 -12 -1 -20 5 -7 6 -13 8 -13 3 0 -5 -4 -4 -8 1 -9 13 -244 91 -302
100 -24 4 -49 13 -55 20 -5 7 -30 18 -55 24 -107 28 -161 41 -221 51 -35 6
-73 13 -84 15 -163 28 -506 51 -530 35 -16 -11 -65 -11 -65 0 0 12 -10 12 -30
1z"/>
    <path d="M15740 9788 c-89 -61 -123 -166 -101 -319 17 -121 50 -182 130 -238
29 -20 47 -24 101 -24 77 0 97 9 144 66 28 34 36 54 39 93 5 62 -10 213 -22
228 -5 6 -19 37 -31 69 -12 31 -26 57 -32 57 -6 0 -20 8 -31 18 -20 16 -20 16
-13 -3 16 -45 46 -182 46 -215 0 -56 -18 -104 -49 -134 l-30 -28 -17 38 c-9
22 -18 74 -20 119 -2 44 -10 111 -16 149 -10 61 -10 72 5 99 10 16 16 32 13
34 -2 3 -22 7 -43 10 -29 4 -46 -1 -73 -19z"/>
    <path d="M2575 6825 c14 -755 19 -876 44 -1063 11 -81 25 -194 31 -252 10 -99
14 -126 24 -175 2 -11 7 -40 11 -65 20 -132 94 -506 118 -600 8 -30 20 -82 27
-115 6 -33 16 -71 20 -85 5 -14 14 -50 21 -80 6 -30 30 -109 51 -175 22 -66
41 -124 42 -130 2 -5 8 -23 14 -38 7 -16 12 -31 12 -34 0 -3 9 -27 21 -52 12
-25 29 -64 39 -86 157 -352 323 -659 474 -873 107 -153 157 -220 270 -356 145
-176 117 -145 332 -368 51 -52 107 -106 125 -120 19 -14 58 -49 88 -77 30 -28
58 -51 62 -51 3 0 12 -7 19 -15 18 -21 310 -240 385 -289 33 -21 62 -41 65
-45 3 -3 25 -17 50 -30 25 -14 59 -34 75 -47 49 -36 110 -64 333 -156 15 -6
32 -12 37 -14 6 -1 61 -19 124 -39 63 -19 129 -38 145 -41 17 -3 54 -11 81
-19 28 -7 84 -19 125 -26 41 -7 77 -16 80 -20 3 -5 23 -9 45 -10 22 -1 45 -5
50 -8 16 -9 36 -11 105 -12 131 -2 636 11 660 17 14 3 41 8 60 11 19 3 78 16
130 30 52 14 104 26 115 27 11 0 22 4 25 8 3 4 17 9 30 11 14 3 37 10 53 16
15 6 27 8 27 5 0 -4 7 -1 15 6 11 9 15 10 15 1 0 -8 6 -6 16 4 9 9 23 14 30
11 8 -3 14 -1 14 4 0 5 6 7 14 4 7 -3 21 2 30 12 19 18 34 12 20 -9 -5 -7 -1
-4 8 6 14 14 25 17 49 12 22 -5 29 -4 25 4 -4 6 0 12 11 13 10 0 23 2 28 2 6
1 27 9 47 19 21 10 70 26 110 36 40 11 121 40 180 65 59 25 110 46 112 46 7 0
203 117 251 150 25 17 50 28 55 25 6 -4 23 7 38 23 15 15 52 41 82 56 30 15
62 33 70 39 8 7 41 25 73 41 31 16 57 33 57 38 0 4 5 8 10 8 27 0 286 206 415
329 44 43 100 95 125 116 25 22 44 43 42 48 -1 5 2 6 7 3 5 -3 17 6 27 21 9
15 28 39 41 53 14 14 37 43 53 65 31 43 64 75 80 75 6 0 9 3 8 8 -4 16 32 79
61 107 62 57 169 235 390 642 108 199 154 307 240 561 139 412 216 769 241
1112 5 63 14 149 20 190 24 170 17 687 -10 757 -9 21 -32 25 -49 7 -16 -16
-30 -201 -36 -483 -2 -151 -9 -301 -14 -335 -6 -34 -15 -97 -21 -141 -22 -153
-71 -391 -122 -585 -27 -107 -57 -222 -65 -255 -38 -162 -142 -422 -286 -715
-41 -82 -194 -307 -322 -471 -70 -89 -138 -181 -152 -203 -15 -23 -74 -92
-132 -155 -58 -63 -128 -140 -156 -170 -74 -83 -212 -218 -285 -281 -35 -30
-78 -68 -94 -85 -69 -66 -201 -156 -331 -225 -44 -23 -87 -48 -95 -54 -25 -21
-237 -126 -254 -126 -9 0 -16 -5 -16 -10 0 -6 -3 -9 -7 -8 -8 1 -20 -3 -98
-37 -53 -23 -245 -86 -267 -88 -10 -1 -18 -5 -18 -10 0 -5 -9 1 -19 14 -16 20
-22 22 -42 12 -65 -32 -353 -107 -381 -100 -10 3 -16 1 -13 -3 3 -5 -16 -9
-42 -9 -27 0 -59 -2 -73 -6 -27 -7 -186 -19 -235 -18 -55 2 -109 2 -215 1
-124 -2 -221 3 -235 10 -5 3 -23 7 -40 7 -53 3 -266 22 -275 26 -3 0 -13 0
-23 -1 -10 -1 -25 4 -33 10 -8 7 -14 9 -14 4 0 -5 -5 -2 -10 6 -8 12 -10 12
-10 1 0 -9 -4 -10 -12 -4 -7 6 -21 11 -30 12 -50 4 -57 6 -56 11 2 18 -4 23
-12 10 -7 -10 -12 -12 -17 -4 -8 11 -47 34 -58 34 -3 0 -3 -5 0 -10 4 -6 -18
-1 -47 11 -29 12 -64 25 -78 31 -14 5 -34 17 -45 27 -11 10 -45 28 -75 40 -30
13 -59 27 -64 32 -6 5 -18 9 -27 9 -10 0 -24 7 -33 15 -8 9 -18 16 -21 15 -20
-1 -25 2 -25 14 0 9 -7 12 -20 9 -11 -3 -20 -1 -20 5 0 5 -11 13 -24 16 -28 7
-83 39 -129 76 -18 14 -45 32 -62 40 -16 8 -40 23 -52 34 -13 11 -23 17 -23
13 0 -15 -276 191 -327 245 -17 18 -50 52 -72 76 -22 23 -45 42 -51 42 -5 0
-10 7 -10 15 0 8 -4 15 -10 15 -17 0 -60 43 -53 53 3 6 1 7 -5 3 -7 -4 -12 -2
-12 4 0 6 -4 8 -10 5 -5 -3 -10 0 -10 7 0 7 -22 31 -50 53 -27 22 -49 42 -50
45 0 5 -160 177 -190 205 -47 44 -100 97 -125 126 -58 67 -115 138 -115 143 0
2 -13 20 -30 38 -16 18 -30 38 -30 45 0 7 -5 13 -11 13 -6 0 -8 7 -5 16 3 8 2
13 -3 10 -5 -3 -12 0 -15 7 -3 6 -15 26 -26 42 -11 17 -26 44 -34 60 -8 17
-31 46 -50 64 -20 20 -36 45 -36 57 0 13 -8 28 -17 33 -10 6 -13 11 -8 11 6 0
5 4 -1 8 -7 4 -30 43 -51 87 -22 44 -58 115 -81 157 -23 42 -42 84 -42 92 0 8
-3 16 -7 18 -5 2 -21 28 -37 58 -16 30 -33 58 -38 61 -5 3 -10 16 -13 29 -2
12 -11 30 -19 39 -17 19 -66 125 -66 143 0 6 -12 40 -26 76 -14 35 -23 70 -20
78 3 8 2 13 -3 9 -5 -3 -13 9 -16 27 -4 18 -11 39 -15 48 -22 46 -46 140 -36
140 8 0 8 2 0 8 -11 7 -39 85 -48 132 -2 14 -11 42 -20 62 -9 21 -16 47 -16
58 0 11 -4 20 -8 20 -8 0 -35 94 -37 125 0 6 -4 16 -8 23 -5 6 -6 12 -2 12 3
0 -1 16 -9 35 -8 19 -13 35 -11 35 2 0 -2 15 -10 34 -8 18 -11 36 -8 39 3 4 0
13 -6 21 -8 10 -9 16 -2 21 7 4 5 15 -5 31 -9 13 -14 35 -12 49 3 14 2 25 -3
25 -4 0 -8 8 -8 18 0 33 -33 182 -40 178 -3 -2 -7 19 -8 48 -2 58 -6 87 -15
101 -3 6 -9 26 -12 45 -3 19 -8 44 -10 55 -18 85 -46 245 -55 320 -13 108 -15
122 -47 345 -14 96 -28 195 -31 220 -3 25 -16 110 -30 190 -14 80 -27 174 -30
210 -2 36 -8 69 -14 75 -6 6 -7 -90 -4 -260z"/>
    <path d="M6720 2329 c0 -4 11 -10 25 -13 14 -4 23 -11 20 -16 -11 -19 6 -32
23 -18 13 11 14 11 8 -1 -7 -10 -3 -12 15 -7 24 7 24 7 4 -9 -20 -16 -19 -16
5 -12 14 3 42 -3 62 -13 20 -10 39 -15 42 -12 4 3 6 0 6 -6 0 -9 35 -12 121
-12 66 0 118 4 115 8 -3 5 -31 14 -63 22 -32 7 -67 19 -78 26 -11 8 -29 14
-40 14 -12 0 -26 5 -32 11 -8 8 -13 8 -17 0 -10 -16 -37 -13 -59 7 -11 9 -17
12 -14 5 4 -6 3 -14 -3 -18 -5 -3 -10 -1 -10 4 0 6 -6 11 -13 11 -7 0 -20 9
-30 20 -12 15 -27 20 -52 18 -19 -1 -35 -5 -35 -9z"/>
    <path d="M6755 2039 c-33 -4 -123 -10 -200 -14 -242 -12 -245 -13 -245 -36 0
-6 4 -8 10 -4 5 3 60 7 122 9 62 2 104 1 93 -4 -19 -7 -19 -8 5 -16 14 -4 27
-8 30 -7 3 0 53 4 111 7 59 4 128 10 155 14 27 4 68 7 91 7 24 0 43 3 43 6 0
3 11 4 25 1 16 -3 25 0 25 8 0 8 -16 11 -50 8 -30 -2 -49 1 -46 7 2 6 10 9 19
9 9 -1 14 2 11 7 -6 10 -98 8 -199 -2z"/>
  </g>
</svg>
