
<?xml version="1.0" standalone="no"?>
<!DOCTYPE svg PUBLIC "-//W3C//DTD SVG 20010904//EN"
  "http://www.w3.org/TR/2001/REC-SVG-20010904/DTD/svg10.dtd">
<svg version="1.0" xmlns="http://www.w3.org/2000/svg"
     width="250.000000pt" height="127.000000pt" viewBox="0 0 250.000000 127.000000"
     preserveAspectRatio="xMidYMid meet">

  <g transform="translate(0.000000,127.000000) scale(0.100000,-0.100000)"
     fill="#000000" stroke="none">
    <path d="M1211 1230 c-57 -71 -83 -142 -89 -241 l-5 -89 -34 0 c-50 0 -103
-54 -103 -104 0 -97 84 -150 174 -111 17 7 18 5 12 -21 -12 -48 -67 -124 -109
-152 -79 -52 -211 -26 -313 62 -37 32 -38 35 -22 52 26 30 31 68 14 102 -36
70 -141 52 -160 -28 -9 -34 22 -81 60 -94 l31 -11 -13 -63 c-43 -207 -173
-244 -322 -91 -51 52 -57 69 -22 69 27 0 60 47 60 85 0 25 -8 40 -31 59 -41
34 -73 33 -111 -5 l-31 -30 -22 21 c-26 25 -115 60 -150 60 -14 0 -25 -1 -25
-3 0 -1 25 -29 55 -61 81 -85 191 -256 291 -451 48 -94 89 -172 91 -174 2 -3
11 6 20 20 73 105 264 193 513 236 130 22 440 22 570 0 257 -44 439 -128 513
-236 9 -14 18 -23 20 -20 2 2 45 85 96 185 105 207 206 368 280 445 28 29 51
54 51 56 0 2 -11 3 -25 3 -35 0 -124 -35 -150 -60 l-22 -21 -31 30 c-39 40
-74 40 -113 2 -48 -49 -36 -111 27 -137 l35 -15 -31 -36 c-68 -77 -132 -116
-193 -116 -72 0 -127 67 -151 185 l-13 63 31 11 c91 32 72 165 -23 164 -80 -1
-116 -84 -63 -144 16 -17 15 -20 -22 -52 -22 -19 -62 -45 -90 -58 -138 -65
-239 -33 -307 98 -35 67 -35 85 -1 67 73 -39 162 24 162 115 0 50 -53 104
-103 104 l-34 0 -5 89 c-4 66 -12 103 -32 146 -26 57 -81 135 -95 135 -4 0
-22 -18 -40 -40z"/>
  </g>
</svg>
